<svg width="145" height="25" viewBox="0 0 145 25" fill="none" xmlns="http://www.w3.org/2000/svg">
<path d="M9.36719 6.10938C8.3776 6.16146 7.54427 6.53906 6.86719 7.24219C6.21615 7.94531 5.7474 8.7526 5.46094 9.66406C5.17448 10.5495 5.03125 11.4609 5.03125 12.3984C5.03125 13.3359 5.16146 14.2604 5.42188 15.1719C5.70833 16.0833 6.1901 16.8906 6.86719 17.5938C7.54427 18.2708 8.3776 18.6354 9.36719 18.6875H22.2578C23.8984 18.8438 24.7969 19.7422 24.9531 21.3828C24.9271 22.112 24.6536 22.724 24.1328 23.2188C23.612 23.6875 22.987 23.9219 22.2578 23.9219H9.79688H8C6.17708 23.8177 4.67969 23.1276 3.50781 21.8516C2.33594 20.5495 1.48958 19.0781 0.96875 17.4375C0.473958 15.7969 0.226562 14.1172 0.226562 12.3984C0.226562 11.1224 0.369792 9.85938 0.65625 8.60938C0.942708 7.35938 1.38542 6.17448 1.98438 5.05469C2.60938 3.90885 3.42969 2.93229 4.44531 2.125C5.48698 1.31771 6.67188 0.901042 8 0.875H8.74219H22.2578C23.8984 1.03125 24.7969 1.92969 24.9531 3.57031C24.9531 4.29948 24.6797 4.91146 24.1328 5.40625C23.612 5.875 22.987 6.10938 22.2578 6.10938H9.36719ZM31.1641 0.25C31.8932 0.25 32.5182 0.497396 33.0391 0.992188C33.5599 1.46094 33.8333 2.0599 33.8594 2.78906V12.2031C33.8333 13.2708 33.8984 14.2604 34.0547 15.1719C34.237 16.0573 34.6536 16.8516 35.3047 17.5547C35.9557 18.2578 36.776 18.6354 37.7656 18.6875H50.2656C50.9948 18.7135 51.5938 18.987 52.0625 19.5078C52.5573 20.0286 52.8047 20.6536 52.8047 21.3828C52.7786 22.0859 52.5182 22.6849 52.0234 23.1797C51.5547 23.6484 50.9688 23.8958 50.2656 23.9219H36.4375C34.6146 23.8177 33.1042 23.2057 31.9062 22.0859C30.7344 20.9401 29.888 19.5469 29.3672 17.9062C28.8724 16.2656 28.612 14.5208 28.5859 12.6719V2.78906C28.612 2.08594 28.8724 1.5 29.3672 1.03125C29.862 0.536458 30.4609 0.276042 31.1641 0.25ZM77.4922 0.875C78.8203 0.901042 80.0052 1.31771 81.0469 2.125C82.0885 2.93229 82.9219 3.89583 83.5469 5.01562C84.1979 6.13542 84.6797 7.32031 84.9922 8.57031C85.3047 9.82031 85.4609 11.0964 85.4609 12.3984C85.4609 14.1172 85.1875 15.8099 84.6406 17.4766C84.1198 19.1172 83.2474 20.5755 82.0234 21.8516C80.8255 23.1276 79.3151 23.8177 77.4922 23.9219H63.8594C62.0365 23.8438 60.513 23.1667 59.2891 21.8906C58.0651 20.6146 57.1927 19.1432 56.6719 17.4766C56.1771 15.8099 55.9297 14.1172 55.9297 12.3984C55.9297 10.6797 56.1901 9 56.7109 7.35938C57.2318 5.69271 58.0911 4.22135 59.2891 2.94531C60.513 1.64323 62.0365 0.953125 63.8594 0.875H64.6016H76.75H77.4922ZM76.1641 18.6875C77.1536 18.6354 77.974 18.2708 78.625 17.5938C79.3021 16.8906 79.7839 16.0833 80.0703 15.1719C80.3568 14.2604 80.5 13.3359 80.5 12.3984C80.5 11.4609 80.3438 10.5495 80.0312 9.66406C79.7448 8.7526 79.276 7.94531 78.625 7.24219C77.974 6.53906 77.1536 6.16146 76.1641 6.10938H65.0703C64.0807 6.16146 63.2604 6.53906 62.6094 7.24219C61.9583 7.94531 61.4766 8.7526 61.1641 9.66406C60.8776 10.5495 60.7344 11.4609 60.7344 12.3984C60.7344 13.3359 60.8776 14.2604 61.1641 15.1719C61.4505 16.0833 61.9193 16.8906 62.5703 17.5938C63.2474 18.2708 64.0807 18.6354 65.0703 18.6875H76.1641ZM102.18 24.8203C100.826 24.8203 99.4844 24.6641 98.1562 24.3516C96.8542 24.0391 95.6042 23.5833 94.4062 22.9844C93.2083 22.3594 92.1536 21.5391 91.2422 20.5234C90.3307 19.5078 89.8359 18.2969 89.7578 16.8906V15.25V2.78906C89.7578 2.0599 90.0182 1.46094 90.5391 0.992188C91.0859 0.497396 91.724 0.25 92.4531 0.25C94.0156 0.380208 94.862 1.22656 94.9922 2.78906V15.6797C95.0443 16.487 95.3438 17.1641 95.8906 17.7109C96.4635 18.2318 97.0885 18.6484 97.7656 18.9609C98.4688 19.2734 99.1849 19.5078 99.9141 19.6641C100.669 19.8203 101.424 19.8984 102.18 19.8984C102.935 19.8984 103.677 19.8203 104.406 19.6641C105.161 19.5078 105.878 19.2734 106.555 18.9609C107.258 18.6484 107.883 18.2318 108.43 17.7109C109.003 17.1641 109.315 16.487 109.367 15.6797V2.78906C109.367 2.0599 109.628 1.46094 110.148 0.992188C110.695 0.497396 111.333 0.25 112.062 0.25C113.625 0.380208 114.484 1.22656 114.641 2.78906V15.25V16.8906C114.562 18.2969 114.055 19.5078 113.117 20.5234C112.206 21.5391 111.151 22.3594 109.953 22.9844C108.755 23.5833 107.492 24.0391 106.164 24.3516C104.862 24.6641 103.534 24.8203 102.18 24.8203ZM136.789 0.875C138.612 0.979167 140.109 1.68229 141.281 2.98438C142.453 4.26042 143.299 5.71875 143.82 7.35938C144.341 9 144.602 10.6797 144.602 12.3984C144.602 14.1172 144.341 15.7969 143.82 17.4375C143.326 19.0781 142.479 20.5495 141.281 21.8516C140.109 23.1276 138.612 23.8177 136.789 23.9219H122.414C121.711 23.8958 121.112 23.6484 120.617 23.1797C120.148 22.6849 119.901 22.0859 119.875 21.3828V11.6953C119.901 10.9661 120.174 10.3672 120.695 9.89844C121.216 9.40365 121.841 9.15625 122.57 9.15625C123.273 9.18229 123.872 9.44271 124.367 9.9375C124.862 10.4062 125.122 10.9922 125.148 11.6953V17.6328C125.148 18.3359 125.513 18.6875 126.242 18.6875H135.461C136.451 18.6354 137.271 18.2578 137.922 17.5547C138.573 16.8516 139.042 16.0573 139.328 15.1719C139.641 14.2604 139.797 13.3359 139.797 12.3984C139.797 11.4609 139.641 10.5495 139.328 9.66406C139.042 8.7526 138.573 7.94531 137.922 7.24219C137.271 6.53906 136.451 6.16146 135.461 6.10938H122.414C120.852 5.97917 120.005 5.13281 119.875 3.57031C119.875 2.84115 120.109 2.21615 120.578 1.69531C121.073 1.17448 121.685 0.901042 122.414 0.875H136.789Z" fill="black"/>
</svg>
