<svg width="150" height="50" viewBox="0 0 299 102" fill="none" xmlns="http://www.w3.org/2000/svg">
<rect width="300" height="102" fill="#212121"/>
<path d="M58.63 13.54C64.21 13.63 69.34 13.9 73.57 16.33V13.72C69.16 12.73 62.95 12.19 57.46 12.19C31.18 12.19 17.5 24.43 17.5 44.5C17.5 64.57 31.18 76.9 57.46 76.9C62.95 76.9 69.16 76.36 73.57 75.37V72.85C69.34 75.19 64.21 75.55 58.63 75.55C43.06 75.46 30.82 67.27 30.82 44.5C30.82 21.73 43.06 13.54 58.63 13.54ZM107.375 31.72C92.3448 31.72 82.7148 39.73 82.7148 54.22C82.7148 68.62 92.3448 76.72 107.375 76.72C122.405 76.72 132.035 68.62 132.035 54.22C132.035 39.73 122.405 31.72 107.375 31.72ZM107.375 75.46C99.8148 75.46 94.7748 69.79 94.7748 54.22C94.7748 38.56 99.8148 33.07 107.375 33.07C114.935 33.07 119.885 38.56 119.885 54.22C119.885 69.79 114.935 75.46 107.375 75.46ZM151.692 76V11.29H141.162V76H151.692ZM171.292 76V11.29H160.762V76H171.292ZM191.431 76.09V32.44H180.901V76.09H191.431ZM186.121 25.69C189.361 25.69 191.971 23.08 191.971 19.84C191.971 16.6 189.361 13.99 186.121 13.99C182.971 13.99 180.361 16.6 180.361 19.84C180.361 23.08 182.971 25.69 186.121 25.69ZM235.214 33.97V32.44H219.374V17.86H208.844V32.44H201.104V34.06H208.844V66.64C208.844 73.57 213.074 76.72 220.724 76.72C229.274 76.72 233.504 72.13 234.494 66.82H234.314C233.054 69.61 229.724 72.13 225.764 72.13C221.624 72.13 219.374 69.7 219.374 65.74V33.97H235.214ZM280.754 62.68C280.664 61.51 280.394 60.34 279.944 59.35C278.054 55.3 273.194 53.05 268.064 51.34L260.594 48.73C256.184 47.2 252.494 45.49 252.134 41.62C252.044 41.35 252.044 41.17 252.044 40.9C252.044 35.95 256.454 33.25 261.494 33.07C261.674 33.07 261.854 33.07 262.034 33.07C262.664 33.07 263.204 33.07 263.744 33.07C268.784 33.16 273.644 33.79 278.414 35.14L278.864 33.88C273.374 32.35 267.884 31.72 262.034 31.72C252.854 31.72 243.584 36.22 243.584 44.23C243.584 44.41 243.674 44.59 243.674 44.86C243.674 45.67 243.854 46.48 244.034 47.2C245.294 51.43 249.254 54.22 254.024 55.93L260.954 58.45C266.174 60.34 270.854 62.05 271.304 66.46C271.304 66.64 271.304 66.82 271.304 67.09C271.304 71.05 268.064 74.83 261.404 75.37C260.864 75.37 260.324 75.37 259.694 75.37C258.974 75.37 258.074 75.37 257.264 75.28C252.584 75.1 247.184 74.11 242.774 72.85L242.324 74.11C247.634 75.64 254.384 76.72 259.694 76.72C270.494 76.72 280.754 72.31 280.754 63.22C280.754 63.04 280.754 62.86 280.754 62.68Z" fill="#EBEBEB"/>
</svg>
